<?xml version="1.0" encoding="UTF-8" standalone="no"?>
<!-- Created with Inkscape (http://www.inkscape.org/) -->

<svg
   xmlns:dc="http://purl.org/dc/elements/1.1/"
   xmlns:cc="http://creativecommons.org/ns#"
   xmlns:rdf="http://www.w3.org/1999/02/22-rdf-syntax-ns#"
   xmlns:svg="http://www.w3.org/2000/svg"
   xmlns="http://www.w3.org/2000/svg"
   xmlns:xlink="http://www.w3.org/1999/xlink"
   xmlns:sodipodi="http://sodipodi.sourceforge.net/DTD/sodipodi-0.dtd"
   xmlns:inkscape="http://www.inkscape.org/namespaces/inkscape"
   width="96"
   height="96"
   id="svg6517"
   version="1.1"
   inkscape:version="0.91 r13725"
   sodipodi:docname="icon.svg">
  <defs
     id="defs6519">
    <linearGradient
       id="Background">
      <stop
         style="stop-color:#592ec5;stop-opacity:1"
         offset="0"
         id="stop4180" />
      <stop
         style="stop-color:#5978c5;stop-opacity:0.06763285"
         offset="1"
         id="stop4178" />
    </linearGradient>
    <filter
       style="color-interpolation-filters:sRGB;"
       inkscape:label="Inner Shadow"
       id="filter1121">
      <feFlood
         flood-opacity="0.59999999999999998"
         flood-color="rgb(0,0,0)"
         result="flood"
         id="feFlood1123" />
      <feComposite
         in="flood"
         in2="SourceGraphic"
         operator="out"
         result="composite1"
         id="feComposite1125" />
      <feGaussianBlur
         in="composite1"
         stdDeviation="1"
         result="blur"
         id="feGaussianBlur1127" />
      <feOffset
         dx="0"
         dy="2"
         result="offset"
         id="feOffset1129" />
      <feComposite
         in="offset"
         in2="SourceGraphic"
         operator="atop"
         result="composite2"
         id="feComposite1131" />
    </filter>
    <filter
       style="color-interpolation-filters:sRGB;"
       inkscape:label="Drop Shadow"
       id="filter950">
      <feFlood
         flood-opacity="1"
         flood-color="rgb(0,0,0)"
         result="flood"
         id="feFlood952" />
      <feComposite
         in="flood"
         in2="SourceGraphic"
         operator="in"
         result="composite1"
         id="feComposite954" />
      <feGaussianBlur
         in="composite1"
         stdDeviation="1"
         result="blur"
         id="feGaussianBlur956" />
      <feOffset
         dx="0"
         dy="1"
         result="offset"
         id="feOffset958" />
      <feComposite
         in="SourceGraphic"
         in2="offset"
         operator="over"
         result="composite2"
         id="feComposite960" />
    </filter>
    <clipPath
       clipPathUnits="userSpaceOnUse"
       id="clipPath873">
      <g
         transform="matrix(0,-0.66666667,0.66604479,0,-258.25992,677.00001)"
         id="g875"
         inkscape:label="Layer 1"
         style="fill:#ff00ff;fill-opacity:1;stroke:none;display:inline">
        <path
           style="fill:#ff00ff;fill-opacity:1;stroke:none;display:inline"
           d="m 46.702703,898.22775 50.594594,0 C 138.16216,898.22775 144,904.06497 144,944.92583 l 0,50.73846 c 0,40.86071 -5.83784,46.69791 -46.702703,46.69791 l -50.594594,0 C 5.8378378,1042.3622 0,1036.525 0,995.66429 L 0,944.92583 C 0,904.06497 5.8378378,898.22775 46.702703,898.22775 Z"
           id="path877"
           inkscape:connector-curvature="0"
           sodipodi:nodetypes="sssssssss" />
      </g>
    </clipPath>
    <filter
       inkscape:collect="always"
       id="filter891"
       inkscape:label="Badge Shadow">
      <feGaussianBlur
         inkscape:collect="always"
         stdDeviation="0.71999962"
         id="feGaussianBlur893" />
    </filter>
    <clipPath
       clipPathUnits="userSpaceOnUse"
       id="clipPath42">
      <path
         d="m 919.996,3950.2 c 255.904,-203.38 511.814,-406.74 767.734,-610.12 -80.4,-172.13 -201.27,-329.22 -234.15,-520.47 -1.73,-35.64 -11.69,-39.46 -28.16,-5.09 -166.58,261.46 -329.34,512.74 -495.053,774.73 -41.629,72.62 -65.773,153.45 -86.644,234.03 25.422,42.31 50.847,84.61 76.273,126.92 z"
         id="path44"
         inkscape:connector-curvature="0" />
    </clipPath>
    <radialGradient
       fx="0"
       fy="0"
       cx="0"
       cy="0"
       r="1"
       gradientUnits="userSpaceOnUse"
       gradientTransform="matrix(668.874,-810.302,443.285,365.916,796.221,3882.55)"
       spreadMethod="pad"
       id="radialGradient46">
      <stop
         style="stop-opacity:1;stop-color:#b62d30"
         offset="0"
         id="stop48" />
      <stop
         style="stop-opacity:1;stop-color:#d63032"
         offset="1"
         id="stop50" />
    </radialGradient>
    <clipPath
       clipPathUnits="userSpaceOnUse"
       id="clipPath26">
      <path
         d="m 3817.02,2938 c 172.49,-265.19 328.39,-540.54 500.39,-806.19 58.72,-86.75 88.46,-188.61 107.31,-290.72 l -44.31,-74.11 -767.92,604.53 c 40.41,71.4 120.52,240.34 160.89,311.73 45.36,76.58 46.37,168.52 43.64,254.76 l 0,0 z"
         id="path28"
         inkscape:connector-curvature="0" />
    </clipPath>
    <radialGradient
       fx="0"
       fy="0"
       cx="0"
       cy="0"
       r="1"
       gradientUnits="userSpaceOnUse"
       gradientTransform="matrix(572.018,418.823,-643.553,878.949,4436.99,1741.84)"
       spreadMethod="pad"
       id="radialGradient30">
      <stop
         style="stop-opacity:1;stop-color:#d5a827"
         offset="0"
         id="stop32" />
      <stop
         style="stop-opacity:1;stop-color:#f4c12a"
         offset="1"
         id="stop34" />
    </radialGradient>
    <linearGradient
       inkscape:collect="always"
       xlink:href="#Background"
       id="linearGradient4368"
       x1="-223.60612"
       y1="636.65967"
       x2="-223.02039"
       y2="730.1673"
       gradientUnits="userSpaceOnUse" />
  </defs>
  <sodipodi:namedview
     id="base"
     pagecolor="#ffffff"
     bordercolor="#666666"
     borderopacity="1.0"
     inkscape:pageopacity="0.0"
     inkscape:pageshadow="2"
     inkscape:zoom="4.0745362"
     inkscape:cx="25.018978"
     inkscape:cy="51.36593"
     inkscape:document-units="px"
     inkscape:current-layer="layer1"
     showgrid="true"
     fit-margin-top="0"
     fit-margin-left="0"
     fit-margin-right="0"
     fit-margin-bottom="0"
     inkscape:window-width="1366"
     inkscape:window-height="744"
     inkscape:window-x="0"
     inkscape:window-y="24"
     inkscape:window-maximized="1"
     showborder="true"
     showguides="true"
     inkscape:guide-bbox="true"
     inkscape:showpageshadow="false"
     inkscape:snap-grids="false"
     inkscape:snap-to-guides="false">
    <inkscape:grid
       type="xygrid"
       id="grid821" />
    <sodipodi:guide
       orientation="1,0"
       position="16,48"
       id="guide823" />
    <sodipodi:guide
       orientation="0,1"
       position="64,80"
       id="guide825" />
    <sodipodi:guide
       orientation="1,0"
       position="80,40"
       id="guide827" />
    <sodipodi:guide
       orientation="0,1"
       position="64,16"
       id="guide829" />
  </sodipodi:namedview>
  <metadata
     id="metadata6522">
    <rdf:RDF>
      <cc:Work
         rdf:about="">
        <dc:format>image/svg+xml</dc:format>
        <dc:type
           rdf:resource="http://purl.org/dc/dcmitype/StillImage" />
        <dc:title />
      </cc:Work>
    </rdf:RDF>
  </metadata>
  <g
     inkscape:label="BACKGROUND"
     inkscape:groupmode="layer"
     id="layer1"
     transform="translate(268,-635.29076)"
     style="display:inline">
    <path
       style="fill:url(#linearGradient4368);fill-opacity:1.0;stroke:none;display:inline;filter:url(#filter1121)"
       d="m -268,700.15563 0,-33.72973 c 0,-27.24324 3.88785,-31.13513 31.10302,-31.13513 l 33.79408,0 c 27.21507,0 31.1029,3.89189 31.1029,31.13513 l 0,33.72973 c 0,27.24325 -3.88783,31.13514 -31.1029,31.13514 l -33.79408,0 C -264.11215,731.29077 -268,727.39888 -268,700.15563 Z"
       id="path6455"
       inkscape:connector-curvature="0"
       sodipodi:nodetypes="sssssssss" />
    <g
       id="g3503"
       transform="translate(0.80089845,-0.31781519)">
      <path
         inkscape:connector-curvature="0"
         id="path14"
         style="fill:#d63032;fill-opacity:1;fill-rule:nonzero;stroke:none"
         d="m -239.74212,652.64214 c -2.46626,-0.0319 -4.58515,1.71427 -5.63483,3.84789 -2.05034,3.4318 -4.10107,6.86393 -6.15147,10.29573 2.45857,6.49427 6.42241,12.3476 10.33492,18.03007 0.17532,-1.58591 0.40239,-3.34782 1.39859,-4.65593 5.06021,-8.26526 10.11681,-16.53584 15.17941,-24.79786 1.10024,-1.3357 -0.0997,-3.00182 -1.69884,-2.7504 -4.47547,-0.0173 -8.95197,0.0247 -13.42778,0.0305" />
      <a
         id="a3500">
        <path
           d="m -217.29931,653.52129 c 0.44592,-1.01934 1.73295,-0.81129 2.63302,-0.88772 l 12.79335,0.0339 c 2.05565,-0.008 4.03041,1.15969 5.07923,2.91801 l 15.35027,24.99117 c 1.19774,1.8051 1.21437,4.2981 0,6.09908 -2.93498,4.68061 -5.70835,9.4589 -8.71547,14.08398 -0.32304,-1.74992 -0.83272,-3.49555 -1.83903,-4.98223 -2.94766,-4.55259 -5.61941,-9.27141 -8.57546,-13.81612 l -16.11032,-26.01068 c -0.42005,-0.72629 -0.9424,-1.56278 -0.61559,-2.42942"
           style="fill:#2fa352;fill-opacity:1;fill-rule:nonzero;stroke:none"
           id="path16"
           inkscape:connector-curvature="0" />
      </a>
      <path
         inkscape:connector-curvature="0"
         id="path18"
         style="fill:#5978c5;fill-opacity:1;fill-rule:nonzero;stroke:none"
         d="m -251.52842,666.78987 c 3.56387,6.32564 6.84983,12.82129 10.91777,18.84719 5.27305,8.63064 10.54507,17.26643 15.82087,25.89123 1.57288,2.16465 -0.51293,3.11065 -2.55932,3.10259 -4.24531,-0.0209 -8.49251,0.0252 -12.73629,-0.0396 -2.30054,-0.12682 -4.18464,-1.71119 -5.17862,-3.70685 -5.03253,-8.19415 -10.09714,-16.3703 -15.10927,-24.57627 -1.10544,-1.92044 -0.84348,-4.35209 0.51078,-6.06293 2.77797,-4.48523 5.55612,-8.97013 8.33408,-13.45537" />
      <path
         inkscape:connector-curvature="0"
         id="path20"
         style="fill:#f4c12a;fill-opacity:1;fill-rule:nonzero;stroke:none"
         d="m -200.57152,681.95934 c 0.13745,1.80218 -0.14412,3.68269 -1.24178,5.16012 -5.0381,8.24076 -10.11458,16.46164 -15.12749,24.71491 -0.89766,1.35884 0.12357,2.72093 1.61162,2.67448 l 13.74174,0.0672 c 2.38932,-0.0864 4.4753,-1.72061 5.47493,-3.84258 1.92523,-3.35793 3.97763,-6.64251 5.95787,-9.96942 -0.31121,-2.18263 -1.24607,-4.19304 -2.47466,-6.00071 -2.64706,-4.26794 -5.29447,-8.53604 -7.94223,-12.80398" />
      <g
         id="g22"
         transform="matrix(0.01713755,0,0,-0.01713755,-265.98776,732.31151)">
        <g
           clip-path="url(#clipPath26)"
           id="g24">
          <path
             inkscape:connector-curvature="0"
             id="path36"
             style="fill:url(#radialGradient30);fill-opacity:1;fill-rule:nonzero;stroke:none"
             d="m 3817.02,2938 c 172.49,-265.19 328.39,-540.54 500.39,-806.19 58.72,-86.75 88.46,-188.61 107.31,-290.72 l -44.31,-74.11 -767.92,604.53 c 40.41,71.4 120.52,240.34 160.89,311.73 45.36,76.58 46.37,168.52 43.64,254.76 l 0,0" />
        </g>
      </g>
      <g
         id="g38"
         transform="matrix(0.01713755,0,0,-0.01713755,-265.98776,732.31151)">
        <g
           clip-path="url(#clipPath42)"
           id="g40">
          <path
             inkscape:connector-curvature="0"
             id="path52"
             style="fill:url(#radialGradient46);fill-opacity:1;fill-rule:nonzero;stroke:none"
             d="m 919.996,3950.2 c 255.904,-203.38 511.814,-406.74 767.734,-610.12 -80.4,-172.13 -201.27,-329.22 -234.15,-520.47 -1.73,-35.64 -11.69,-39.46 -28.16,-5.09 -166.58,261.46 -329.34,512.74 -495.053,774.73 -41.629,72.62 -65.773,153.45 -86.644,234.03 25.422,42.31 50.847,84.61 76.273,126.92" />
        </g>
      </g>
    </g>
  </g>
  <g
     inkscape:groupmode="layer"
     id="layer3"
     inkscape:label="PLACE YOUR PICTOGRAM HERE"
     style="display:inline" />
  <g
     inkscape:groupmode="layer"
     id="layer2"
     inkscape:label="BADGE"
     style="display:none"
     sodipodi:insensitive="true">
    <g
       style="display:inline"
       transform="translate(-340.00001,-581)"
       id="g4394"
       clip-path="none">
      <g
         id="g855">
        <g
           inkscape:groupmode="maskhelper"
           id="g870"
           clip-path="url(#clipPath873)"
           style="opacity:0.6;filter:url(#filter891)">
          <path
             transform="matrix(1.4999992,0,0,1.4999992,-29.999795,-237.54282)"
             d="m 264,552.36218 a 12,12 0 0 1 -12,12 12,12 0 0 1 -12,-12 12,12 0 0 1 12,-12 12,12 0 0 1 12,12 z"
             sodipodi:ry="12"
             sodipodi:rx="12"
             sodipodi:cy="552.36218"
             sodipodi:cx="252"
             id="path844"
             style="color:#000000;fill:#000000;fill-opacity:1;fill-rule:nonzero;stroke:none;stroke-width:4;marker:none;visibility:visible;display:inline;overflow:visible;enable-background:accumulate"
             sodipodi:type="arc" />
        </g>
        <g
           id="g862">
          <path
             sodipodi:type="arc"
             style="color:#000000;fill:#f5f5f5;fill-opacity:1;fill-rule:nonzero;stroke:none;stroke-width:4;marker:none;visibility:visible;display:inline;overflow:visible;enable-background:accumulate"
             id="path4398"
             sodipodi:cx="252"
             sodipodi:cy="552.36218"
             sodipodi:rx="12"
             sodipodi:ry="12"
             d="m 264,552.36218 a 12,12 0 0 1 -12,12 12,12 0 0 1 -12,-12 12,12 0 0 1 12,-12 12,12 0 0 1 12,12 z"
             transform="matrix(1.4999992,0,0,1.4999992,-29.999795,-238.54282)" />
          <path
             transform="matrix(1.25,0,0,1.25,33,-100.45273)"
             d="m 264,552.36218 a 12,12 0 0 1 -12,12 12,12 0 0 1 -12,-12 12,12 0 0 1 12,-12 12,12 0 0 1 12,12 z"
             sodipodi:ry="12"
             sodipodi:rx="12"
             sodipodi:cy="552.36218"
             sodipodi:cx="252"
             id="path4400"
             style="color:#000000;fill:#dd4814;fill-opacity:1;fill-rule:nonzero;stroke:none;stroke-width:4;marker:none;visibility:visible;display:inline;overflow:visible;enable-background:accumulate"
             sodipodi:type="arc" />
          <path
             sodipodi:type="star"
             style="color:#000000;fill:#f5f5f5;fill-opacity:1;fill-rule:nonzero;stroke:none;stroke-width:3;marker:none;visibility:visible;display:inline;overflow:visible;enable-background:accumulate"
             id="path4459"
             sodipodi:sides="5"
             sodipodi:cx="666.19574"
             sodipodi:cy="589.50385"
             sodipodi:r1="7.2431178"
             sodipodi:r2="4.3458705"
             sodipodi:arg1="1.0471976"
             sodipodi:arg2="1.6755161"
             inkscape:flatsided="false"
             inkscape:rounded="0.1"
             inkscape:randomized="0"
             d="m 669.8173,595.77657 c -0.39132,0.22593 -3.62645,-1.90343 -4.07583,-1.95066 -0.44938,-0.0472 -4.05653,1.36297 -4.39232,1.06062 -0.3358,-0.30235 0.68963,-4.03715 0.59569,-4.47913 -0.0939,-0.44198 -2.5498,-3.43681 -2.36602,-3.8496 0.18379,-0.41279 4.05267,-0.59166 4.44398,-0.81759 0.39132,-0.22593 2.48067,-3.48704 2.93005,-3.4398 0.44938,0.0472 1.81505,3.67147 2.15084,3.97382 0.3358,0.30236 4.08294,1.2817 4.17689,1.72369 0.0939,0.44198 -2.9309,2.86076 -3.11469,3.27355 -0.18379,0.41279 0.0427,4.27917 -0.34859,4.5051 z"
             transform="matrix(1.511423,-0.16366377,0.16366377,1.511423,-755.37346,-191.93651)" />
        </g>
      </g>
    </g>
  </g>
</svg>
